<?xml version="1.0" encoding="UTF-8"?>
<!DOCTYPE svg PUBLIC "-//W3C//DTD SVG 1.1//EN" "http://www.w3.org/Graphics/SVG/1.1/DTD/svg11.dtd">
<!-- Creator: CorelDRAW 2019 (64-Bit) -->
<svg xmlns="http://www.w3.org/2000/svg" xml:space="preserve" width="154.103mm" height="98.4118mm" version="1.1" style="shape-rendering:geometricPrecision; text-rendering:geometricPrecision; image-rendering:optimizeQuality; fill-rule:evenodd; clip-rule:evenodd"
viewBox="0 0 16618.99 10613.08"
 xmlns:xlink="http://www.w3.org/1999/xlink"
 xmlns:xodm="http://www.corel.com/coreldraw/odm/2003">
 <defs>
  <style type="text/css">
   <![CDATA[
    .fil1 {fill:#00589C;fill-rule:nonzero}
    .fil2 {fill:#0080C8;fill-rule:nonzero}
    .fil0 {fill:#626261;fill-rule:nonzero}
   ]]>
  </style>
 </defs>
 <g id="Слой_x0020_1">
  <metadata id="CorelCorpID_0Corel-Layer"/>
  <path class="fil0" d="M13236.89 8499.16l-721.51 0 -351.87 783.96 -164.66 0 0 -783.96 -667.06 0 0 2073.03 667.06 0 0 -736.53 163.62 0 359.81 736.53 765.35 0 -565.42 -1045.72 514.67 -1027.32zm826.62 1286.47l751.58 0 0 -493 -751.58 0 0 -252.59 819.57 0 0 -540.88 -1486.48 0 0 2073.03 1547.8 0 0 -541.02 -880.89 0 0 -245.55zm-12792.54 -244.7l-684.72 -1041.77 -586.25 0 0 2073.03 632.02 0 0 -1050.74 684.57 1050.74 586.4 0 0 -2073.03 -632.02 0 0 1041.77zm4093.36 -304.46c0,75.54 -38.36,243.95 -231.25,243.95l-224.04 0 0 -516.6 251.45 0c67.25,0 203.85,77.79 203.85,239.53l0 33.12zm648.75 23.81l0 -100.06c0,-423.08 -353.2,-660.91 -784.46,-660.91l-977.28 -0.15 0 2073.03 657.69 0 0 -614.04 196.26 0 276.77 614.04 691.15 0 -386.82 -759.08c197.59,-108.8 326.69,-296.91 326.69,-552.84zm4333.05 -794.88l-299.08 0c-431.37,0 -784.31,307.4 -784.31,784.46l0 578.6c0,479.55 352.94,784.62 784.31,784.62l299.08 0c431.62,0 784.55,-308.12 784.55,-784.62l0 -26.18 -669.68 0 0 72.55c0,137.34 -112.33,249.67 -249.81,249.67l-29.12 0c-137.19,0 -249.52,-112.33 -249.52,-249.67l0 -671.92c0,-137.4 112.33,-249.73 249.52,-249.73l29.12 0c137.48,0 249.81,112.33 249.81,249.73l0 100.95 669.68 0 0 -54c0,-502.24 -352.93,-784.46 -784.55,-784.46zm5483.09 1547.06l0 -1513.29 -666.92 0 0 2073.03 1456.69 0 0 -559.74 -789.77 0zm-7459.67 559.74l666.89 0 0 -2073.03 -666.89 0 0 2073.03zm-5014.33 -697.37c0,137.34 -112.31,249.67 -249.64,249.67l-57.06 0c-137.19,0 -249.52,-112.33 -249.52,-249.67l0 -671.92c0,-137.4 112.33,-249.73 249.52,-249.73l57.06 0c137.33,0 249.64,112.33 249.64,249.73l0 671.92zm-114.94 -1409.43l-326.69 0c-431.47,0 -784.55,307.4 -784.55,784.46l0 578.6c0,479.55 353.08,784.62 784.55,784.62l326.69 0c431.62,0 784.62,-308.12 784.62,-784.62l0 -578.6c0,-502.24 -352.99,-784.46 -784.62,-784.46zm4213 1095.45l-663.59 -1061.69 -586.18 0 0 2073.03 632.01 0 0 -1041.83 656.2 1041.83 586.31 0 0 -2073.03 -624.74 0 0 1061.69z"/>
  <polygon class="fil1" points="6633.6,4121.43 9742.98,6218.88 9742.98,2097.44 6633.6,0.15 "/>
  <path class="fil2" d="M6633.6 0.15c-1717.33,0 -3109.55,1392.13 -3109.55,3109.39 0,1717.33 1392.22,3109.4 3109.55,3109.4l0 -6218.79z"/>
  <path class="fil2" d="M9743.03 6218.86c1717.19,0 3109.32,-1392.2 3109.32,-3109.39 0,-1717.28 -1392.13,-3109.47 -3109.32,-3109.47l0 6218.86z"/>
 </g>
</svg>
